<svg width="444" height="200" viewBox="0 0 444 200" fill="none" xmlns="http://www.w3.org/2000/svg">
<g filter="url(#filter0_d)">
<path d="M36.438 44.511C36.5273 44.6897 36.572 44.913 36.572 45.181C36.572 46.4317 35.0087 47.5707 31.882 48.598C28.8 49.6253 26.053 50.139 23.641 50.139C17.2983 50.139 12.519 47.995 9.303 43.707C6.087 39.3743 4.479 33.322 4.479 25.55C4.479 17.3313 6.33267 11.279 10.04 7.393C13.4793 3.73033 17.879 1.899 23.239 1.899C25.383 1.899 27.594 2.27867 29.872 3.038C32.1947 3.79733 34.1153 4.82466 35.634 6.12C36.17 6.522 36.438 6.924 36.438 7.326C36.438 7.37066 36.3933 7.57166 36.304 7.929L33.088 15.634C32.9093 15.9913 32.6637 16.17 32.351 16.17C32.2617 16.17 32.083 16.1253 31.815 16.036C31.4577 15.8573 30.7207 15.433 29.604 14.763C28.4873 14.093 27.4377 13.557 26.455 13.155C25.4723 12.753 24.512 12.552 23.574 12.552C19.5987 12.552 17.611 16.438 17.611 24.21C17.611 34.394 19.9113 39.486 24.512 39.486C25.7627 39.486 26.991 39.218 28.197 38.682C29.4477 38.146 30.4527 37.61 31.212 37.074C32.016 36.538 32.4627 36.27 32.552 36.27C32.7307 36.27 32.9317 36.471 33.155 36.873L36.438 44.511ZM57.8806 49H42.4706C42.0686 49 41.8006 48.9553 41.6666 48.866C41.5773 48.732 41.5326 48.464 41.5326 48.062V16.84C41.5326 16.438 41.5773 16.1923 41.6666 16.103C41.8006 15.969 42.0686 15.902 42.4706 15.902H57.8136C62.727 15.902 65.9653 16.3263 67.5286 17.175C70.0746 18.5597 71.3476 20.9047 71.3476 24.21C71.3476 27.962 69.6726 30.374 66.3226 31.446C68.556 31.982 70.1193 32.987 71.0126 34.461C71.906 35.935 72.3526 37.476 72.3526 39.084C72.3526 42.032 71.5263 44.2877 69.8736 45.851C67.6403 47.9503 63.6426 49 57.8806 49ZM53.0566 23.071V28.833H56.6076C58.7963 28.833 59.8906 27.828 59.8906 25.818C59.8906 24.9247 59.5556 24.2547 58.8856 23.808C58.2603 23.3167 57.568 23.071 56.8086 23.071H53.0566ZM53.0566 35.533V41.831H57.0766C58.2826 41.831 59.176 41.5183 59.7566 40.893C60.382 40.2677 60.6946 39.5307 60.6946 38.682C60.6946 37.61 60.315 36.8283 59.5556 36.337C58.841 35.801 57.97 35.533 56.9426 35.533H53.0566ZM108.46 33.992C108.46 34.6173 108.103 34.93 107.388 34.93H88.4274C88.6061 37.208 89.1644 38.8607 90.1024 39.888C91.0404 40.9153 92.3581 41.429 94.0554 41.429C95.8867 41.429 97.3831 41.228 98.5444 40.826C99.7504 40.424 101.135 39.7987 102.698 38.95C103.011 38.7713 103.257 38.682 103.435 38.682C103.748 38.682 104.038 38.9277 104.306 39.419L107.321 45.047C107.455 45.2703 107.522 45.449 107.522 45.583C107.522 45.8063 107.299 46.052 106.852 46.32C103.1 48.866 98.7231 50.139 93.7204 50.139C88.2264 50.139 84.0501 48.6203 81.1914 45.583C78.3327 42.501 76.9034 38.213 76.9034 32.719C76.9034 27.4483 78.3774 23.138 81.3254 19.788C84.3181 16.438 88.3381 14.763 93.3854 14.763C103.435 14.763 108.46 21.1727 108.46 33.992ZM97.1374 27.761C97.0034 25.6617 96.6014 24.21 95.9314 23.406C95.306 22.5573 94.3234 22.133 92.9834 22.133C91.5987 22.133 90.5714 22.535 89.9014 23.339C89.2761 24.143 88.7847 25.617 88.4274 27.761H97.1374ZM141.369 36.136V48.464C141.369 48.8213 141.213 49 140.9 49H131.252C130.85 49 130.649 48.7097 130.649 48.129V36.136H129.577C128.461 36.136 127.612 36.4487 127.031 37.074C126.495 37.6993 126.071 38.615 125.758 39.821L125.155 42.702C123.994 47.66 120.376 50.139 114.301 50.139C113.229 50.139 112.626 49.804 112.492 49.134L111.152 42.702C111.152 42.0767 111.465 41.697 112.09 41.563L113.028 41.429C113.252 41.3843 113.453 41.3397 113.631 41.295C113.855 41.2503 114.033 41.1833 114.167 41.094C114.346 41.0047 114.48 40.9377 114.569 40.893C114.703 40.8037 114.815 40.692 114.904 40.558C115.038 40.3793 115.128 40.2677 115.172 40.223C115.217 40.1783 115.284 40.0667 115.373 39.888C115.463 39.6647 115.507 39.5307 115.507 39.486C115.552 39.4413 115.597 39.3073 115.641 39.084C115.731 38.8607 115.775 38.7267 115.775 38.682L116.311 36.873C117.205 33.9697 118.79 32.25 121.068 31.714V31.513C118.924 31.0663 117.607 29.771 117.115 27.627L116.713 26.019C116.535 25.2597 116.267 24.7013 115.909 24.344C115.597 23.942 115.284 23.6963 114.971 23.607C114.703 23.5177 114.257 23.406 113.631 23.272L112.827 23.138C112.247 23.0487 111.956 22.736 111.956 22.2C111.956 22.0213 111.979 21.8873 112.023 21.798L113.631 15.567C113.765 15.031 114.346 14.763 115.373 14.763C120.689 14.763 123.86 17.0857 124.887 21.731L125.356 23.875C125.58 25.081 126.004 25.952 126.629 26.488C127.255 27.024 128.17 27.292 129.376 27.292H130.649V16.773C130.649 16.5943 130.672 16.4603 130.716 16.371C130.761 16.237 130.828 16.1477 130.917 16.103C131.051 16.0583 131.141 16.036 131.185 16.036C131.23 16.036 131.364 16.0137 131.587 15.969L140.967 14.897C141.235 14.897 141.369 15.0533 141.369 15.366V27.292H142.642C143.848 27.292 144.764 27.024 145.389 26.488C146.015 25.952 146.439 25.081 146.662 23.875L147.131 21.731C148.159 17.0857 151.33 14.763 156.645 14.763C157.673 14.763 158.253 15.031 158.387 15.567L159.995 21.798C160.04 21.8873 160.062 22.0213 160.062 22.2C160.062 22.736 159.772 23.0487 159.191 23.138L158.387 23.272C157.762 23.406 157.293 23.5177 156.98 23.607C156.712 23.6963 156.4 23.942 156.042 24.344C155.73 24.7013 155.484 25.2597 155.305 26.019L154.903 27.627C154.412 29.771 153.094 31.0663 150.95 31.513V31.714C153.228 32.25 154.814 33.9697 155.707 36.873L156.243 38.682C156.243 38.7267 156.266 38.8607 156.31 39.084C156.4 39.3073 156.444 39.4413 156.444 39.486C156.489 39.5307 156.556 39.6647 156.645 39.888C156.735 40.0667 156.802 40.1783 156.846 40.223C156.891 40.2677 156.958 40.3793 157.047 40.558C157.181 40.692 157.293 40.8037 157.382 40.893C157.516 40.9377 157.65 41.0047 157.784 41.094C157.963 41.1833 158.142 41.2503 158.32 41.295C158.544 41.3397 158.767 41.3843 158.99 41.429L159.928 41.563C160.554 41.697 160.866 42.0767 160.866 42.702L159.526 49.134C159.392 49.804 158.789 50.139 157.717 50.139C151.643 50.139 148.025 47.66 146.863 42.702L146.26 39.821C145.948 38.615 145.501 37.6993 144.92 37.074C144.384 36.4487 143.558 36.136 142.441 36.136H141.369ZM164.868 48.062V16.505C164.868 16.1477 165.18 15.9243 165.806 15.835L175.454 14.763C175.722 14.763 175.856 14.9193 175.856 15.232V28.163C175.856 29.8603 175.766 32.0043 175.588 34.595H175.789C176.682 32.317 177.843 29.9497 179.273 27.493L185.102 17.242C185.414 16.706 185.66 16.371 185.839 16.237C186.062 16.0583 186.442 15.9467 186.978 15.902L196.827 14.763C197.184 14.763 197.363 15.031 197.363 15.567V48.598C197.363 48.866 197.184 49 196.827 49H186.978C186.71 49 186.531 48.9553 186.442 48.866C186.397 48.7767 186.375 48.531 186.375 48.129V36.471C186.375 34.6397 186.486 32.5627 186.71 30.24H186.442C185.638 32.384 184.365 35.0193 182.623 38.146L177.129 48.33C176.861 48.7767 176.503 49 176.057 49H165.806C165.404 49 165.136 48.9553 165.002 48.866C164.912 48.732 164.868 48.464 164.868 48.062ZM226.706 0.893996L232.535 1.497C232.982 1.497 233.205 1.87666 233.205 2.636C233.205 4.06533 232.781 5.45 231.932 6.79C229.743 10.3187 226.081 12.083 220.944 12.083C218.889 12.083 217.08 11.815 215.517 11.279C213.954 10.6983 212.77 10.0283 211.966 9.269C211.162 8.465 210.514 7.594 210.023 6.656C209.532 5.67333 209.219 4.86933 209.085 4.244C208.996 3.61866 208.951 3.08266 208.951 2.636C208.951 1.87666 209.174 1.497 209.621 1.497L215.45 0.893996C215.539 0.893996 215.629 0.893996 215.718 0.893996C215.807 0.84933 215.897 0.826997 215.986 0.826997C216.299 0.826997 216.522 1.25133 216.656 2.1C216.835 2.904 217.237 3.708 217.862 4.512C218.532 5.316 219.649 5.718 221.212 5.718C222.507 5.718 223.468 5.316 224.093 4.512C224.763 3.708 225.187 2.904 225.366 2.1C225.589 1.25133 225.857 0.826997 226.17 0.826997C226.259 0.826997 226.349 0.84933 226.438 0.893996C226.527 0.893996 226.617 0.893996 226.706 0.893996ZM204.06 48.062V16.505C204.06 16.1477 204.373 15.9243 204.998 15.835L214.646 14.763C214.914 14.763 215.048 14.9193 215.048 15.232V28.163C215.048 29.8603 214.959 32.0043 214.78 34.595H214.981C215.874 32.317 217.036 29.9497 218.465 27.493L224.294 17.242C224.607 16.706 224.852 16.371 225.031 16.237C225.254 16.0583 225.634 15.9467 226.17 15.902L236.019 14.763C236.376 14.763 236.555 15.031 236.555 15.567V48.598C236.555 48.866 236.376 49 236.019 49H226.17C225.902 49 225.723 48.9553 225.634 48.866C225.589 48.7767 225.567 48.531 225.567 48.129V36.471C225.567 34.6397 225.679 32.5627 225.902 30.24H225.634C224.83 32.384 223.557 35.0193 221.815 38.146L216.321 48.33C216.053 48.7767 215.696 49 215.249 49H204.998C204.596 49 204.328 48.9553 204.194 48.866C204.105 48.732 204.06 48.464 204.06 48.062ZM21.698 115H6.288C5.886 115 5.618 114.955 5.484 114.866C5.39467 114.732 5.35 114.464 5.35 114.062V82.84C5.35 82.438 5.39467 82.1923 5.484 82.103C5.618 81.969 5.886 81.902 6.288 81.902H21.631C26.5443 81.902 29.7827 82.3263 31.346 83.175C33.892 84.5597 35.165 86.9047 35.165 90.21C35.165 93.962 33.49 96.374 30.14 97.446C32.3733 97.982 33.9367 98.987 34.83 100.461C35.7233 101.935 36.17 103.476 36.17 105.084C36.17 108.032 35.3437 110.288 33.691 111.851C31.4577 113.95 27.46 115 21.698 115ZM16.874 89.071V94.833H20.425C22.6137 94.833 23.708 93.828 23.708 91.818C23.708 90.9247 23.373 90.2547 22.703 89.808C22.0777 89.3167 21.3853 89.071 20.626 89.071H16.874ZM16.874 101.533V107.831H20.894C22.1 107.831 22.9933 107.518 23.574 106.893C24.1993 106.268 24.512 105.531 24.512 104.682C24.512 103.61 24.1323 102.828 23.373 102.337C22.6583 101.801 21.7873 101.533 20.76 101.533H16.874ZM39.9063 90.746L37.8293 85.922C37.74 85.654 37.6953 85.4977 37.6953 85.453C37.6953 85.051 37.941 84.649 38.4323 84.247C41.0676 81.9243 44.9536 80.763 50.0903 80.763C51.207 80.763 52.3906 80.9193 53.6413 81.232C54.9366 81.5 56.3213 81.969 57.7953 82.639C59.2693 83.2643 60.4753 84.2693 61.4133 85.654C62.3513 87.0387 62.8203 88.669 62.8203 90.545C62.8203 94.2077 61.1453 96.5973 57.7953 97.714V97.915C59.7606 98.4957 61.2123 99.523 62.1503 100.997C63.0883 102.471 63.5573 104.057 63.5573 105.754C63.5573 107.809 63.066 109.573 62.0833 111.047C61.1453 112.476 59.917 113.548 58.3983 114.263C56.8796 114.933 55.428 115.402 54.0433 115.67C52.6586 115.983 51.2963 116.139 49.9563 116.139C46.7403 116.139 43.7923 115.625 41.1123 114.598C38.477 113.571 37.1593 112.566 37.1593 111.583C37.1593 111.494 37.204 111.315 37.2933 111.047L39.3703 106.357C39.5043 106.044 39.7276 105.888 40.0403 105.888C40.1743 105.888 41.0676 106.312 42.7203 107.161C44.4176 107.965 45.981 108.367 47.4103 108.367C50.4923 108.367 52.0333 107.228 52.0333 104.95C52.0333 104.012 51.81 103.32 51.3633 102.873C50.9166 102.382 50.3806 102.091 49.7553 102.002C49.1746 101.868 48.326 101.801 47.2093 101.801H44.6633C44.038 101.801 43.7253 101.488 43.7253 100.863V95.57C43.7253 95.2127 43.7923 94.967 43.9263 94.833C44.0603 94.699 44.306 94.632 44.6633 94.632H47.1423C50.0456 94.632 51.4973 93.6717 51.4973 91.751C51.4973 89.607 50.135 88.535 47.4103 88.535C45.9363 88.535 44.3283 89.004 42.5863 89.942L41.2463 90.679C40.7996 90.9023 40.487 91.014 40.3083 91.014C40.085 91.014 39.951 90.9247 39.9063 90.746ZM68.5551 114.397V82.639C68.5551 82.1477 68.8007 81.902 69.2921 81.902H92.0051C92.4964 81.902 92.7421 82.1477 92.7421 82.639L91.6701 89.942C91.5361 90.9247 90.9777 91.416 89.9951 91.416H80.6151V114.129C80.6151 114.71 80.3694 115 79.8781 115H69.1581C68.7561 115 68.5551 114.799 68.5551 114.397ZM112.795 90.746H107.1L107.033 93.426C106.899 99.1433 106.609 103.074 106.162 105.218C105.448 108.389 104.175 110.846 102.343 112.588C99.8422 114.955 96.5592 116.139 92.4945 116.139C91.9138 116.139 91.5342 116.027 91.3555 115.804C91.1768 115.625 91.0205 115.29 90.8865 114.799L89.1445 108.97L89.0775 108.836C89.0775 108.791 89.0775 108.747 89.0775 108.702C89.0775 108.032 89.3232 107.652 89.8145 107.563L90.5515 107.429C92.0255 107.116 93.0975 106.692 93.7675 106.156C94.4375 105.575 94.9735 104.794 95.3755 103.811C95.8222 102.784 96.1125 101.444 96.2465 99.791C96.4252 98.1383 96.5145 96.7537 96.5145 95.637C96.5592 94.4757 96.5592 92.7783 96.5145 90.545C96.4698 88.3117 96.4475 86.8377 96.4475 86.123V82.84C96.4475 82.438 96.4922 82.1923 96.5815 82.103C96.7155 81.969 96.9835 81.902 97.3855 81.902H123.984C124.565 81.902 124.855 82.1477 124.855 82.639V83.041V114.464C124.855 114.732 124.811 114.888 124.721 114.933C124.632 114.978 124.342 115 123.85 115H113.398C112.996 115 112.795 114.71 112.795 114.129V90.746ZM161.781 82.84V114.531C161.781 114.844 161.602 115 161.245 115H150.793C150.257 115 149.989 114.71 149.989 114.129V103.208H147.912C145.723 103.208 144.383 104.414 143.892 106.826L143.289 109.305C142.932 110.779 142.351 112.007 141.547 112.99C140.788 113.928 139.872 114.598 138.8 115C137.728 115.447 136.701 115.737 135.718 115.871C134.78 116.05 133.686 116.139 132.435 116.139C131.452 116.139 130.894 115.893 130.76 115.402L128.884 109.037C128.839 108.948 128.817 108.814 128.817 108.635C128.817 108.01 129.152 107.63 129.822 107.496L130.626 107.362C132.055 107.094 132.971 106.245 133.373 104.816L133.775 103.543C134.445 101.578 135.718 100.305 137.594 99.724V99.59C133.574 98.384 131.564 95.7487 131.564 91.684C131.564 88.8253 132.39 86.5697 134.043 84.917C136.053 82.907 139.559 81.902 144.562 81.902H160.843C161.245 81.902 161.491 81.969 161.58 82.103C161.714 82.1923 161.781 82.438 161.781 82.84ZM149.989 96.039V89.071H147.108C144.249 89.071 142.82 90.1653 142.82 92.354C142.82 94.8107 144.182 96.039 146.907 96.039H149.989ZM199.152 82.84V106.826H202.301C202.748 106.826 202.971 107.094 202.971 107.63V123.442C202.971 123.844 202.904 124.09 202.77 124.179C202.681 124.313 202.435 124.38 202.033 124.38H193.859C193.502 124.38 193.256 124.313 193.122 124.179C192.988 124.045 192.921 123.799 192.921 123.442V115H175.166V123.442C175.166 123.844 175.099 124.09 174.965 124.179C174.876 124.313 174.63 124.38 174.228 124.38H166.054C165.697 124.38 165.451 124.313 165.317 124.179C165.183 124.045 165.116 123.799 165.116 123.442V107.764C165.116 107.139 165.34 106.826 165.786 106.826H168.667C170.409 103.699 171.504 100.573 171.95 97.446C172.263 95.302 172.419 91.5053 172.419 86.056V82.84C172.419 82.438 172.464 82.1923 172.553 82.103C172.687 81.969 172.955 81.902 173.357 81.902H198.214C198.572 81.902 198.817 81.969 198.951 82.103C199.085 82.237 199.152 82.4827 199.152 82.84ZM188.03 106.826V90.076H182.335V92.287C182.335 98.0043 181.397 102.851 179.521 106.826H188.03ZM241.402 93.627V82.639C241.402 82.237 241.625 82.036 242.072 82.036L253.127 80.897C253.35 80.897 253.462 81.0757 253.462 81.433V114.397C253.462 114.799 253.306 115 252.993 115H242.139C241.648 115 241.402 114.71 241.402 114.129V102.203H234.702V114.464C234.702 114.821 234.546 115 234.233 115H223.446C222.91 115 222.642 114.71 222.642 114.129V82.773C222.642 82.3263 222.865 82.0807 223.312 82.036L234.3 80.897C234.568 80.897 234.702 81.0533 234.702 81.366V93.627H241.402ZM289.546 112.588C289.636 112.945 289.68 113.169 289.68 113.258C289.68 113.481 289.524 113.638 289.211 113.727L282.042 115.804C281.64 115.938 281.216 116.005 280.769 116.005C280.323 116.005 279.965 115.804 279.697 115.402C279.474 115 279.072 114.129 278.491 112.789C275.901 114.888 273.243 115.938 270.518 115.938C266.9 115.938 264.064 115 262.009 113.124C259.999 111.203 258.994 108.59 258.994 105.285C258.994 97.4683 264.935 93.56 276.816 93.56V91.617C276.816 90.9023 276.571 90.3887 276.079 90.076C275.588 89.7633 274.538 89.607 272.93 89.607C270.965 89.607 268.285 90.2993 264.89 91.684C264.756 91.7733 264.578 91.818 264.354 91.818C264.086 91.818 263.885 91.6393 263.751 91.282L261.339 84.649L261.205 84.113C261.205 83.8897 261.496 83.6217 262.076 83.309C265.114 81.6117 269.245 80.763 274.471 80.763C283.494 80.763 288.005 84.6043 288.005 92.287V104.481C288.005 107.295 288.519 109.997 289.546 112.588ZM276.816 106.29V100.595C271.858 100.595 269.379 102.002 269.379 104.816C269.379 105.933 269.692 106.826 270.317 107.496C270.943 108.121 271.702 108.434 272.595 108.434C273.98 108.434 275.387 107.719 276.816 106.29ZM337.775 86.056L335.229 91.952C335.051 92.354 334.85 92.555 334.626 92.555C334.448 92.555 334.18 92.4433 333.822 92.22C331.187 90.5673 328.909 89.741 326.988 89.741C325.47 89.741 324.197 90.4557 323.169 91.885C322.142 93.2697 321.628 95.5253 321.628 98.652C321.628 101.645 322.142 103.811 323.169 105.151C324.197 106.491 325.492 107.161 327.055 107.161C328.574 107.161 330.495 106.491 332.817 105.151C333.264 104.883 333.621 104.749 333.889 104.749C334.202 104.749 334.492 105.017 334.76 105.553L337.306 110.511C337.485 110.868 337.574 111.136 337.574 111.315C337.574 112.61 336.1 113.749 333.152 114.732C330.204 115.67 327.748 116.139 325.782 116.139C320.556 116.139 316.559 114.62 313.789 111.583C311.065 108.501 309.702 104.302 309.702 98.987C309.702 93.4037 311.199 88.9817 314.191 85.721C317.184 82.4157 321.405 80.763 326.854 80.763C330.74 80.763 334.247 81.902 337.373 84.18C337.82 84.4927 338.043 84.8053 338.043 85.118C338.043 85.2073 337.954 85.52 337.775 86.056ZM371.03 99.992C371.03 100.617 370.672 100.93 369.958 100.93H350.997C351.175 103.208 351.734 104.861 352.672 105.888C353.61 106.915 354.927 107.429 356.625 107.429C358.456 107.429 359.952 107.228 361.114 106.826C362.32 106.424 363.704 105.799 365.268 104.95C365.58 104.771 365.826 104.682 366.005 104.682C366.317 104.682 366.608 104.928 366.876 105.419L369.891 111.047C370.025 111.27 370.092 111.449 370.092 111.583C370.092 111.806 369.868 112.052 369.422 112.32C365.67 114.866 361.292 116.139 356.29 116.139C350.796 116.139 346.619 114.62 343.761 111.583C340.902 108.501 339.473 104.213 339.473 98.719C339.473 93.4483 340.947 89.138 343.895 85.788C346.887 82.438 350.907 80.763 355.955 80.763C366.005 80.763 371.03 87.1727 371.03 99.992ZM359.707 93.761C359.573 91.6617 359.171 90.21 358.501 89.406C357.875 88.5573 356.893 88.133 355.553 88.133C354.168 88.133 353.141 88.535 352.471 89.339C351.845 90.143 351.354 91.617 350.997 93.761H359.707ZM404.408 62.941L407.088 69.775C407.132 69.8643 407.155 70.0207 407.155 70.244C407.155 70.78 406.842 71.182 406.217 71.45L395.095 75.738C391.209 77.212 388.395 78.82 386.653 80.562C384.821 82.3933 383.906 84.582 383.906 87.128V87.463H384.308C386.452 84.0237 389.846 82.304 394.492 82.304C398.556 82.304 401.795 83.5323 404.207 85.989C407.065 88.8923 408.495 93.0463 408.495 98.451C408.495 104.034 406.954 108.412 403.872 111.583C400.879 114.62 396.837 116.139 391.745 116.139C386.876 116.139 383.057 114.71 380.288 111.851C379.216 110.734 378.345 109.461 377.675 108.032C377.005 106.558 376.536 104.816 376.268 102.806C376.044 100.751 375.888 99.0317 375.799 97.647C375.754 96.2623 375.732 94.2523 375.732 91.617C375.732 90.0983 375.754 88.803 375.799 87.731C375.888 86.6143 376.022 85.3413 376.201 83.912C376.424 82.4827 376.737 81.232 377.139 80.16C377.541 79.088 378.099 77.9267 378.814 76.676C379.573 75.4253 380.466 74.3087 381.494 73.326C382.521 72.3433 383.794 71.3607 385.313 70.378C386.876 69.3507 388.618 68.435 390.539 67.631L402.733 62.472C403.001 62.3827 403.224 62.338 403.403 62.338C403.894 62.338 404.229 62.539 404.408 62.941ZM392.08 107.965C395.072 107.965 396.569 105.062 396.569 99.255C396.569 96.441 396.256 94.3417 395.631 92.957C394.916 91.3043 393.732 90.478 392.08 90.478C389.087 90.478 387.591 93.2473 387.591 98.786C387.591 101.779 387.859 103.945 388.395 105.285C389.154 107.072 390.382 107.965 392.08 107.965ZM443.129 82.84V114.531C443.129 114.844 442.95 115 442.593 115H432.141C431.605 115 431.337 114.71 431.337 114.129V103.208H429.26C427.071 103.208 425.731 104.414 425.24 106.826L424.637 109.305C424.279 110.779 423.699 112.007 422.895 112.99C422.135 113.928 421.22 114.598 420.148 115C419.076 115.447 418.048 115.737 417.066 115.871C416.128 116.05 415.033 116.139 413.783 116.139C412.8 116.139 412.242 115.893 412.108 115.402L410.232 109.037C410.187 108.948 410.165 108.814 410.165 108.635C410.165 108.01 410.5 107.63 411.17 107.496L411.974 107.362C413.403 107.094 414.319 106.245 414.721 104.816L415.123 103.543C415.793 101.578 417.066 100.305 418.942 99.724V99.59C414.922 98.384 412.912 95.7487 412.912 91.684C412.912 88.8253 413.738 86.5697 415.391 84.917C417.401 82.907 420.907 81.902 425.91 81.902H442.191C442.593 81.902 442.838 81.969 442.928 82.103C443.062 82.1923 443.129 82.438 443.129 82.84ZM431.337 96.039V89.071H428.456C425.597 89.071 424.168 90.1653 424.168 92.354C424.168 94.8107 425.53 96.039 428.255 96.039H431.337Z" fill="white"/>
<path d="M32.284 152.056L29.738 157.952C29.5593 158.354 29.3583 158.555 29.135 158.555C28.9563 158.555 28.6883 158.443 28.331 158.22C25.6957 156.567 23.4177 155.741 21.497 155.741C19.9783 155.741 18.7053 156.456 17.678 157.885C16.6507 159.27 16.137 161.525 16.137 164.652C16.137 167.645 16.6507 169.811 17.678 171.151C18.7053 172.491 20.0007 173.161 21.564 173.161C23.0827 173.161 25.0033 172.491 27.326 171.151C27.7727 170.883 28.13 170.749 28.398 170.749C28.7107 170.749 29.001 171.017 29.269 171.553L31.815 176.511C31.9937 176.868 32.083 177.136 32.083 177.315C32.083 178.61 30.609 179.749 27.661 180.732C24.713 181.67 22.2563 182.139 20.291 182.139C15.065 182.139 11.0673 180.62 8.298 177.583C5.57333 174.501 4.211 170.302 4.211 164.987C4.211 159.404 5.70733 154.982 8.7 151.721C11.6927 148.416 15.9137 146.763 21.363 146.763C25.249 146.763 28.7553 147.902 31.882 150.18C32.3287 150.493 32.552 150.805 32.552 151.118C32.552 151.207 32.4627 151.52 32.284 152.056ZM89.5591 179.392C89.6484 179.839 89.6931 180.107 89.6931 180.196C89.6931 180.732 89.2464 181 88.3531 181H77.0301C76.4494 181 76.0921 180.955 75.9581 180.866C75.8241 180.732 75.6901 180.397 75.5561 179.861L73.0101 170.28H64.2331L61.4861 179.861C61.3074 180.397 61.1511 180.732 61.0171 180.866C60.9277 180.955 60.6151 181 60.0791 181H49.6271C48.6891 181 48.2201 180.777 48.2201 180.33C48.2201 180.151 48.3094 179.839 48.4881 179.392L62.4911 136.177C62.6251 135.641 62.7591 135.328 62.8931 135.239C63.0717 135.105 63.4291 135.038 63.9651 135.038H73.9481C74.4841 135.038 74.8191 135.105 74.9531 135.239C75.0871 135.328 75.2657 135.641 75.4891 136.177L89.5591 179.392ZM71.1341 161.235L69.7941 153.396C69.3027 150.627 68.9007 148.081 68.5881 145.758C68.1414 149.331 67.7617 151.877 67.4491 153.396L65.7071 161.235H71.1341ZM112.707 178.588C112.751 178.722 112.774 178.878 112.774 179.057C112.774 179.816 111.635 180.509 109.357 181.134C107.123 181.804 105.314 182.139 103.93 182.139C100.624 182.139 98.0558 181.201 96.2245 179.325C94.5272 177.449 93.6785 174.635 93.6785 170.883L93.6115 135.44C93.6115 134.859 93.6562 134.48 93.7455 134.301C93.8348 134.122 94.0805 134.011 94.4825 133.966L104.533 132.626C104.756 132.581 105.024 132.559 105.337 132.559C105.739 132.559 105.94 132.961 105.94 133.765V170.548C105.94 171.531 106.252 172.022 106.878 172.022C107.503 172.022 108.24 171.91 109.089 171.687C109.937 171.419 110.384 171.285 110.429 171.285C110.741 171.285 110.92 171.419 110.965 171.687L112.707 178.588ZM147.818 164.384C147.818 170.28 146.657 174.747 144.334 177.784C142.012 180.777 138.394 182.273 133.48 182.273C132.006 182.273 130.287 181.826 128.321 180.933V192.725C128.321 193.172 128.277 193.44 128.187 193.529C128.098 193.663 127.897 193.752 127.584 193.797L116.797 195.07C116.529 195.07 116.373 195.003 116.328 194.869C116.284 194.735 116.261 194.422 116.261 193.931V157.617C116.261 156.143 116.038 154.513 115.591 152.726C115.145 150.939 114.921 149.957 114.921 149.778C114.921 149.555 115.1 149.398 115.457 149.309L123.229 146.964C123.721 146.83 124.19 146.763 124.636 146.763C125.128 146.763 125.731 147.723 126.445 149.644C128.723 147.723 131.314 146.763 134.217 146.763C138.729 146.763 142.123 148.349 144.401 151.52C146.679 154.647 147.818 158.935 147.818 164.384ZM136.16 164.585C136.16 158.332 134.887 155.205 132.341 155.205C131.046 155.205 129.706 155.741 128.321 156.813V173.965C129.349 174.412 130.51 174.635 131.805 174.635C133.324 174.635 134.418 173.943 135.088 172.558C135.803 171.173 136.16 168.516 136.16 164.585ZM183.77 165.992C183.77 166.617 183.413 166.93 182.698 166.93H163.737C163.916 169.208 164.474 170.861 165.412 171.888C166.35 172.915 167.668 173.429 169.365 173.429C171.196 173.429 172.693 173.228 173.854 172.826C175.06 172.424 176.445 171.799 178.008 170.95C178.321 170.771 178.566 170.682 178.745 170.682C179.058 170.682 179.348 170.928 179.616 171.419L182.631 177.047C182.765 177.27 182.832 177.449 182.832 177.583C182.832 177.806 182.609 178.052 182.162 178.32C178.41 180.866 174.033 182.139 169.03 182.139C163.536 182.139 159.36 180.62 156.501 177.583C153.642 174.501 152.213 170.213 152.213 164.719C152.213 159.448 153.687 155.138 156.635 151.788C159.628 148.438 163.648 146.763 168.695 146.763C178.745 146.763 183.77 153.173 183.77 165.992ZM172.447 159.761C172.313 157.662 171.911 156.21 171.241 155.406C170.616 154.557 169.633 154.133 168.293 154.133C166.908 154.133 165.881 154.535 165.211 155.339C164.586 156.143 164.094 157.617 163.737 159.761H172.447ZM220.23 179.995C220.23 180.442 220.185 180.732 220.096 180.866C220.007 180.955 219.806 181 219.493 181H209.175C208.728 181 208.438 180.955 208.304 180.866C208.215 180.732 208.17 180.442 208.17 179.995V158.287C208.17 156.143 207.411 155.071 205.892 155.071C204.552 155.071 203.078 155.652 201.47 156.813V180.33C201.47 180.598 201.403 180.777 201.269 180.866C201.18 180.955 200.912 181 200.465 181H190.415C189.968 181 189.678 180.955 189.544 180.866C189.455 180.777 189.41 180.531 189.41 180.129V158.019C189.41 156.232 189.209 154.379 188.807 152.458C188.405 150.493 188.204 149.398 188.204 149.175C188.204 148.862 188.383 148.684 188.74 148.639L197.249 146.83C197.383 146.785 197.584 146.763 197.852 146.763C198.79 146.763 199.616 147.969 200.331 150.381C203.056 147.969 206.115 146.763 209.51 146.763C216.657 146.763 220.23 150.515 220.23 158.019V179.995ZM277.371 175.841C277.371 177.36 275.562 178.789 271.944 180.129C268.326 181.469 264.931 182.139 261.76 182.139C255.06 182.139 250.057 180.129 246.752 176.109C243.447 172.089 241.794 166.238 241.794 158.555V158.287C241.839 150.515 243.536 144.507 246.886 140.264C250.236 136.021 255.239 133.899 261.894 133.899C264.485 133.899 267.098 134.279 269.733 135.038C272.368 135.753 274.49 136.802 276.098 138.187C276.411 138.41 276.567 138.723 276.567 139.125C276.567 139.17 276.522 139.326 276.433 139.594L272.681 147.433C272.547 147.656 272.368 147.768 272.145 147.768C271.966 147.768 271.654 147.656 271.207 147.433C271.118 147.388 270.827 147.254 270.336 147.031C269.889 146.808 269.577 146.651 269.398 146.562C269.264 146.473 268.951 146.316 268.46 146.093C268.013 145.87 267.656 145.713 267.388 145.624C267.12 145.535 266.74 145.423 266.249 145.289C265.802 145.155 265.378 145.066 264.976 145.021C264.619 144.932 264.194 144.865 263.703 144.82C263.212 144.731 262.72 144.686 262.229 144.686C259.951 144.686 258.142 145.646 256.802 147.567C255.462 149.443 254.792 152.815 254.792 157.684C254.792 167.198 257.316 171.955 262.363 171.955C263.614 171.955 264.775 171.776 265.847 171.419V165.121L260.487 165.054C259.906 165.054 259.549 165.009 259.415 164.92C259.281 164.786 259.214 164.429 259.214 163.848V156.411C259.214 155.786 259.281 155.406 259.415 155.272C259.594 155.093 259.996 155.004 260.621 155.004H276.098C276.634 155.004 276.969 155.093 277.103 155.272C277.282 155.406 277.371 155.741 277.371 156.277V175.841ZM315.444 164.518C315.444 169.789 313.993 174.054 311.089 177.315C308.186 180.531 304.188 182.139 299.096 182.139C293.826 182.139 289.761 180.553 286.902 177.382C284.044 174.166 282.614 169.833 282.614 164.384C282.614 159.069 284.066 154.803 286.969 151.587C289.917 148.371 293.982 146.763 299.163 146.763C304.345 146.763 308.342 148.371 311.156 151.587C314.015 154.803 315.444 159.113 315.444 164.518ZM302.379 171.888C303.139 170.459 303.518 167.98 303.518 164.451C303.518 160.922 303.139 158.466 302.379 157.081C301.665 155.652 300.548 154.937 299.029 154.937C297.511 154.937 296.372 155.652 295.612 157.081C294.898 158.466 294.54 160.945 294.54 164.518C294.54 168.047 294.898 170.503 295.612 171.888C296.372 173.273 297.511 173.965 299.029 173.965C300.548 173.965 301.665 173.273 302.379 171.888ZM339.944 178.588C339.988 178.722 340.011 178.878 340.011 179.057C340.011 179.816 338.872 180.509 336.594 181.134C334.36 181.804 332.551 182.139 331.167 182.139C327.861 182.139 325.293 181.201 323.462 179.325C321.764 177.449 320.916 174.635 320.916 170.883L320.849 135.44C320.849 134.859 320.893 134.48 320.983 134.301C321.072 134.122 321.318 134.011 321.72 133.966L331.77 132.626C331.993 132.581 332.261 132.559 332.574 132.559C332.976 132.559 333.177 132.961 333.177 133.765V170.548C333.177 171.531 333.489 172.022 334.115 172.022C334.74 172.022 335.477 171.91 336.326 171.687C337.174 171.419 337.621 171.285 337.666 171.285C337.978 171.285 338.157 171.419 338.202 171.687L339.944 178.588ZM374.385 177.851C374.519 178.253 374.586 178.543 374.586 178.722C374.586 179.035 374.363 179.258 373.916 179.392L366.613 181.67C366.167 181.804 365.675 181.871 365.139 181.871C364.425 181.871 363.799 180.911 363.263 178.99C360.405 181.089 357.501 182.139 354.553 182.139C350.399 182.139 347.273 180.576 345.173 177.449C343.074 174.322 342.024 170.191 342.024 165.054C342.024 161.481 342.292 158.644 342.828 156.545C343.364 154.401 344.414 152.48 345.977 150.783C348.434 148.058 351.829 146.696 356.161 146.696C357.591 146.696 359.243 147.076 361.119 147.835V135.239C361.119 134.658 361.32 134.346 361.722 134.301L371.839 132.626C371.973 132.581 372.174 132.559 372.442 132.559C372.934 132.559 373.179 132.916 373.179 133.631V172.223C373.179 172.893 373.224 173.518 373.313 174.099C373.403 174.68 373.492 175.126 373.581 175.439C373.671 175.707 373.805 176.109 373.983 176.645C374.162 177.181 374.296 177.583 374.385 177.851ZM361.119 172.357V155.138C359.869 154.691 358.663 154.468 357.501 154.468C356.072 154.468 355 155.183 354.285 156.612C353.571 157.997 353.213 160.52 353.213 164.183C353.213 170.66 354.486 173.898 357.032 173.898C358.506 173.898 359.869 173.384 361.119 172.357ZM396.348 135.708L394.673 162.039C394.629 162.62 394.539 162.999 394.405 163.178C394.271 163.312 393.914 163.379 393.333 163.379H385.092C384.512 163.379 384.154 163.312 384.02 163.178C383.886 162.999 383.797 162.62 383.752 162.039L382.077 135.239C382.077 134.837 382.144 134.591 382.278 134.502C382.457 134.368 382.837 134.301 383.417 134.301H394.941C395.522 134.301 395.902 134.368 396.08 134.502C396.259 134.636 396.348 134.904 396.348 135.306V135.708ZM394.74 170.146C396.259 171.665 397.018 173.474 397.018 175.573C397.018 177.672 396.259 179.481 394.74 181C393.222 182.519 391.413 183.278 389.313 183.278C387.214 183.278 385.405 182.519 383.886 181C382.368 179.481 381.608 177.672 381.608 175.573C381.608 173.474 382.368 171.665 383.886 170.146C385.405 168.627 387.214 167.868 389.313 167.868C391.413 167.868 393.222 168.627 394.74 170.146Z" fill="url(#paint0_linear)"/>
</g>
<defs>
<filter id="filter0_d" x="0.210999" y="0.827026" width="442.918" height="198.243" filterUnits="userSpaceOnUse" color-interpolation-filters="sRGB">
<feFlood flood-opacity="0" result="BackgroundImageFix"/>
<feColorMatrix in="SourceAlpha" type="matrix" values="0 0 0 0 0 0 0 0 0 0 0 0 0 0 0 0 0 0 127 0"/>
<feOffset dx="-2" dy="2"/>
<feGaussianBlur stdDeviation="1"/>
<feColorMatrix type="matrix" values="0 0 0 0 0.407789 0 0 0 0 0.153002 0 0 0 0 0.000130266 0 0 0 0.75 0"/>
<feBlend mode="normal" in2="BackgroundImageFix" result="effect1_dropShadow"/>
<feBlend mode="normal" in="SourceGraphic" in2="effect1_dropShadow" result="shape"/>
</filter>
<linearGradient id="paint0_linear" x1="426.88" y1="52.65" x2="241.435" y2="359.023" gradientUnits="userSpaceOnUse">
<stop offset="0.744792" stop-color="#DFBC84"/>
<stop offset="1" stop-color="#E0BFA3"/>
</linearGradient>
</defs>
</svg>
