<svg width="289" height="128" viewBox="0 0 289 128" fill="none" xmlns="http://www.w3.org/2000/svg">
<g filter="url(#filter0_d)">
<path d="M24.9151 28.186C24.9711 28.298 24.9991 28.438 24.9991 28.606C24.9991 29.39 24.0191 30.104 22.0591 30.748C20.1271 31.392 18.4051 31.714 16.8931 31.714C12.9171 31.714 9.92115 30.37 7.90515 27.682C5.88915 24.966 4.88115 21.172 4.88115 16.3C4.88115 11.148 6.04315 7.354 8.36715 4.918C10.5231 2.622 13.2811 1.474 16.6411 1.474C17.9851 1.474 19.3711 1.712 20.7991 2.188C22.2551 2.664 23.4591 3.308 24.4111 4.12C24.7471 4.372 24.9151 4.624 24.9151 4.876C24.9151 4.904 24.8871 5.03 24.8311 5.254L22.8151 10.084C22.7031 10.308 22.5491 10.42 22.3531 10.42C22.2971 10.42 22.1851 10.392 22.0171 10.336C21.7931 10.224 21.3311 9.958 20.6311 9.538C19.9311 9.118 19.2731 8.782 18.6571 8.53C18.0411 8.278 17.4391 8.152 16.8511 8.152C14.3591 8.152 13.1131 10.588 13.1131 15.46C13.1131 21.844 14.5551 25.036 17.4391 25.036C18.2231 25.036 18.9931 24.868 19.7491 24.532C20.5331 24.196 21.1631 23.86 21.6391 23.524C22.1431 23.188 22.4231 23.02 22.4791 23.02C22.5911 23.02 22.7171 23.146 22.8571 23.398L24.9151 28.186ZM38.3568 31H28.6968C28.4448 31 28.2768 30.972 28.1928 30.916C28.1368 30.832 28.1088 30.664 28.1088 30.412V10.84C28.1088 10.588 28.1368 10.434 28.1928 10.378C28.2768 10.294 28.4448 10.252 28.6968 10.252H38.3148C41.3948 10.252 43.4248 10.518 44.4048 11.05C46.0008 11.918 46.7988 13.388 46.7988 15.46C46.7988 17.812 45.7488 19.324 43.6488 19.996C45.0488 20.332 46.0288 20.962 46.5888 21.886C47.1488 22.81 47.4288 23.776 47.4288 24.784C47.4288 26.632 46.9108 28.046 45.8748 29.026C44.4748 30.342 41.9688 31 38.3568 31ZM35.3328 14.746V18.358H37.5588C38.9308 18.358 39.6168 17.728 39.6168 16.468C39.6168 15.908 39.4068 15.488 38.9868 15.208C38.5948 14.9 38.1608 14.746 37.6848 14.746H35.3328ZM35.3328 22.558V26.506H37.8528C38.6088 26.506 39.1688 26.31 39.5328 25.918C39.9248 25.526 40.1208 25.064 40.1208 24.532C40.1208 23.86 39.8828 23.37 39.4068 23.062C38.9588 22.726 38.4128 22.558 37.7688 22.558H35.3328ZM70.0635 21.592C70.0635 21.984 69.8395 22.18 69.3915 22.18H57.5055C57.6175 23.608 57.9675 24.644 58.5555 25.288C59.1435 25.932 59.9695 26.254 61.0335 26.254C62.1815 26.254 63.1195 26.128 63.8475 25.876C64.6035 25.624 65.4715 25.232 66.4515 24.7C66.6475 24.588 66.8015 24.532 66.9135 24.532C67.1095 24.532 67.2915 24.686 67.4595 24.994L69.3495 28.522C69.4335 28.662 69.4755 28.774 69.4755 28.858C69.4755 28.998 69.3355 29.152 69.0555 29.32C66.7035 30.916 63.9595 31.714 60.8235 31.714C57.3795 31.714 54.7615 30.762 52.9695 28.858C51.1775 26.926 50.2815 24.238 50.2815 20.794C50.2815 17.49 51.2055 14.788 53.0535 12.688C54.9295 10.588 57.4495 9.538 60.6135 9.538C66.9135 9.538 70.0635 13.556 70.0635 21.592ZM62.9655 17.686C62.8815 16.37 62.6295 15.46 62.2095 14.956C61.8175 14.424 61.2015 14.158 60.3615 14.158C59.4935 14.158 58.8495 14.41 58.4295 14.914C58.0375 15.418 57.7295 16.342 57.5055 17.686H62.9655ZM90.6931 22.936V30.664C90.6931 30.888 90.5951 31 90.3991 31H84.3511C84.0991 31 83.9731 30.818 83.9731 30.454V22.936H83.3011C82.6011 22.936 82.0691 23.132 81.7051 23.524C81.3691 23.916 81.1031 24.49 80.9071 25.246L80.5291 27.052C79.8011 30.16 77.5331 31.714 73.7251 31.714C73.0531 31.714 72.6751 31.504 72.5911 31.084L71.7511 27.052C71.7511 26.66 71.9471 26.422 72.3391 26.338L72.9271 26.254C73.0671 26.226 73.1931 26.198 73.3051 26.17C73.4451 26.142 73.5571 26.1 73.6411 26.044C73.7531 25.988 73.8371 25.946 73.8931 25.918C73.9771 25.862 74.0471 25.792 74.1031 25.708C74.1871 25.596 74.2431 25.526 74.2711 25.498C74.2991 25.47 74.3411 25.4 74.3971 25.288C74.4531 25.148 74.4811 25.064 74.4811 25.036C74.5091 25.008 74.5371 24.924 74.5651 24.784C74.6211 24.644 74.6491 24.56 74.6491 24.532L74.9851 23.398C75.5451 21.578 76.5391 20.5 77.9671 20.164V20.038C76.6231 19.758 75.7971 18.946 75.4891 17.602L75.2371 16.594C75.1251 16.118 74.9571 15.768 74.7331 15.544C74.5371 15.292 74.3411 15.138 74.1451 15.082C73.9771 15.026 73.6971 14.956 73.3051 14.872L72.8011 14.788C72.4371 14.732 72.2551 14.536 72.2551 14.2C72.2551 14.088 72.2691 14.004 72.2971 13.948L73.3051 10.042C73.3891 9.706 73.7531 9.538 74.3971 9.538C77.7291 9.538 79.7171 10.994 80.3611 13.906L80.6551 15.25C80.7951 16.006 81.0611 16.552 81.4531 16.888C81.8451 17.224 82.4191 17.392 83.1751 17.392H83.9731V10.798C83.9731 10.686 83.9871 10.602 84.0151 10.546C84.0431 10.462 84.0851 10.406 84.1411 10.378C84.2251 10.35 84.2811 10.336 84.3091 10.336C84.3371 10.336 84.4211 10.322 84.5611 10.294L90.4411 9.622C90.6091 9.622 90.6931 9.72 90.6931 9.916V17.392H91.4911C92.2471 17.392 92.8211 17.224 93.2131 16.888C93.6051 16.552 93.8711 16.006 94.0111 15.25L94.3051 13.906C94.9491 10.994 96.9371 9.538 100.269 9.538C100.913 9.538 101.277 9.706 101.361 10.042L102.369 13.948C102.397 14.004 102.411 14.088 102.411 14.2C102.411 14.536 102.229 14.732 101.865 14.788L101.361 14.872C100.969 14.956 100.675 15.026 100.479 15.082C100.311 15.138 100.115 15.292 99.8911 15.544C99.6951 15.768 99.5411 16.118 99.4291 16.594L99.1771 17.602C98.8691 18.946 98.0431 19.758 96.6991 20.038V20.164C98.1271 20.5 99.1211 21.578 99.6811 23.398L100.017 24.532C100.017 24.56 100.031 24.644 100.059 24.784C100.115 24.924 100.143 25.008 100.143 25.036C100.171 25.064 100.213 25.148 100.269 25.288C100.325 25.4 100.367 25.47 100.395 25.498C100.423 25.526 100.465 25.596 100.521 25.708C100.605 25.792 100.675 25.862 100.731 25.918C100.815 25.946 100.899 25.988 100.983 26.044C101.095 26.1 101.207 26.142 101.319 26.17C101.459 26.198 101.599 26.226 101.739 26.254L102.327 26.338C102.719 26.422 102.915 26.66 102.915 27.052L102.075 31.084C101.991 31.504 101.613 31.714 100.941 31.714C97.1331 31.714 94.8651 30.16 94.1371 27.052L93.7591 25.246C93.5631 24.49 93.2831 23.916 92.9191 23.524C92.5831 23.132 92.0651 22.936 91.3651 22.936H90.6931ZM105.423 30.412V10.63C105.423 10.406 105.619 10.266 106.011 10.21L112.059 9.538C112.227 9.538 112.311 9.636 112.311 9.832V17.938C112.311 19.002 112.255 20.346 112.143 21.97H112.269C112.829 20.542 113.557 19.058 114.453 17.518L118.107 11.092C118.303 10.756 118.457 10.546 118.569 10.462C118.709 10.35 118.947 10.28 119.283 10.252L125.457 9.538C125.681 9.538 125.793 9.706 125.793 10.042V30.748C125.793 30.916 125.681 31 125.457 31H119.283C119.115 31 119.003 30.972 118.947 30.916C118.919 30.86 118.905 30.706 118.905 30.454V23.146C118.905 21.998 118.975 20.696 119.115 19.24H118.947C118.443 20.584 117.645 22.236 116.553 24.196L113.109 30.58C112.941 30.86 112.717 31 112.437 31H106.011C105.759 31 105.591 30.972 105.507 30.916C105.451 30.832 105.423 30.664 105.423 30.412ZM144.188 0.843998L147.842 1.222C148.122 1.222 148.262 1.46 148.262 1.936C148.262 2.832 147.996 3.7 147.464 4.54C146.092 6.752 143.796 7.858 140.576 7.858C139.288 7.858 138.154 7.69 137.174 7.354C136.194 6.99 135.452 6.57 134.948 6.094C134.444 5.59 134.038 5.044 133.73 4.456C133.422 3.84 133.226 3.336 133.142 2.944C133.086 2.552 133.058 2.216 133.058 1.936C133.058 1.46 133.198 1.222 133.478 1.222L137.132 0.843998C137.188 0.843998 137.244 0.843998 137.3 0.843998C137.356 0.815998 137.412 0.801998 137.468 0.801998C137.664 0.801998 137.804 1.068 137.888 1.6C138 2.104 138.252 2.608 138.644 3.112C139.064 3.616 139.764 3.868 140.744 3.868C141.556 3.868 142.158 3.616 142.55 3.112C142.97 2.608 143.236 2.104 143.348 1.6C143.488 1.068 143.656 0.801998 143.852 0.801998C143.908 0.801998 143.964 0.815998 144.02 0.843998C144.076 0.843998 144.132 0.843998 144.188 0.843998ZM129.992 30.412V10.63C129.992 10.406 130.188 10.266 130.58 10.21L136.628 9.538C136.796 9.538 136.88 9.636 136.88 9.832V17.938C136.88 19.002 136.824 20.346 136.712 21.97H136.838C137.398 20.542 138.126 19.058 139.022 17.518L142.676 11.092C142.872 10.756 143.026 10.546 143.138 10.462C143.278 10.35 143.516 10.28 143.852 10.252L150.026 9.538C150.25 9.538 150.362 9.706 150.362 10.042V30.748C150.362 30.916 150.25 31 150.026 31H143.852C143.684 31 143.572 30.972 143.516 30.916C143.488 30.86 143.474 30.706 143.474 30.454V23.146C143.474 21.998 143.544 20.696 143.684 19.24H143.516C143.012 20.584 142.214 22.236 141.122 24.196L137.678 30.58C137.51 30.86 137.286 31 137.006 31H130.58C130.328 31 130.16 30.972 130.076 30.916C130.02 30.832 129.992 30.664 129.992 30.412ZM174.611 31H164.951C164.699 31 164.531 30.972 164.447 30.916C164.391 30.832 164.363 30.664 164.363 30.412V10.84C164.363 10.588 164.391 10.434 164.447 10.378C164.531 10.294 164.699 10.252 164.951 10.252H174.569C177.649 10.252 179.679 10.518 180.659 11.05C182.255 11.918 183.053 13.388 183.053 15.46C183.053 17.812 182.003 19.324 179.903 19.996C181.303 20.332 182.283 20.962 182.843 21.886C183.403 22.81 183.683 23.776 183.683 24.784C183.683 26.632 183.165 28.046 182.129 29.026C180.729 30.342 178.223 31 174.611 31ZM171.587 14.746V18.358H173.813C175.185 18.358 175.871 17.728 175.871 16.468C175.871 15.908 175.661 15.488 175.241 15.208C174.849 14.9 174.415 14.746 173.939 14.746H171.587ZM171.587 22.558V26.506H174.107C174.863 26.506 175.423 26.31 175.787 25.918C176.179 25.526 176.375 25.064 176.375 24.532C176.375 23.86 176.137 23.37 175.661 23.062C175.213 22.726 174.667 22.558 174.023 22.558H171.587ZM186.025 15.796L184.723 12.772C184.667 12.604 184.639 12.506 184.639 12.478C184.639 12.226 184.793 11.974 185.101 11.722C186.753 10.266 189.189 9.538 192.409 9.538C193.109 9.538 193.851 9.636 194.635 9.832C195.447 10 196.315 10.294 197.239 10.714C198.163 11.106 198.919 11.736 199.507 12.604C200.095 13.472 200.389 14.494 200.389 15.67C200.389 17.966 199.339 19.464 197.239 20.164V20.29C198.471 20.654 199.381 21.298 199.969 22.222C200.557 23.146 200.851 24.14 200.851 25.204C200.851 26.492 200.543 27.598 199.927 28.522C199.339 29.418 198.569 30.09 197.617 30.538C196.665 30.958 195.755 31.252 194.887 31.42C194.019 31.616 193.165 31.714 192.325 31.714C190.309 31.714 188.461 31.392 186.781 30.748C185.129 30.104 184.303 29.474 184.303 28.858C184.303 28.802 184.331 28.69 184.387 28.522L185.689 25.582C185.773 25.386 185.913 25.288 186.109 25.288C186.193 25.288 186.753 25.554 187.789 26.086C188.853 26.59 189.833 26.842 190.729 26.842C192.661 26.842 193.627 26.128 193.627 24.7C193.627 24.112 193.487 23.678 193.207 23.398C192.927 23.09 192.591 22.908 192.199 22.852C191.835 22.768 191.303 22.726 190.603 22.726H189.007C188.615 22.726 188.419 22.53 188.419 22.138V18.82C188.419 18.596 188.461 18.442 188.545 18.358C188.629 18.274 188.783 18.232 189.007 18.232H190.561C192.381 18.232 193.291 17.63 193.291 16.426C193.291 15.082 192.437 14.41 190.729 14.41C189.805 14.41 188.797 14.704 187.705 15.292L186.865 15.754C186.585 15.894 186.389 15.964 186.277 15.964C186.137 15.964 186.053 15.908 186.025 15.796ZM203.984 30.622V10.714C203.984 10.406 204.138 10.252 204.446 10.252H218.684C218.992 10.252 219.146 10.406 219.146 10.714L218.474 15.292C218.39 15.908 218.04 16.216 217.424 16.216H211.544V30.454C211.544 30.818 211.39 31 211.082 31H204.362C204.11 31 203.984 30.874 203.984 30.622ZM231.717 15.796H228.147L228.105 17.476C228.021 21.06 227.839 23.524 227.559 24.868C227.111 26.856 226.313 28.396 225.165 29.488C223.597 30.972 221.539 31.714 218.991 31.714C218.627 31.714 218.389 31.644 218.277 31.504C218.165 31.392 218.067 31.182 217.983 30.874L216.891 27.22L216.849 27.136C216.849 27.108 216.849 27.08 216.849 27.052C216.849 26.632 217.003 26.394 217.311 26.338L217.773 26.254C218.697 26.058 219.369 25.792 219.789 25.456C220.209 25.092 220.545 24.602 220.797 23.986C221.077 23.342 221.259 22.502 221.343 21.466C221.455 20.43 221.511 19.562 221.511 18.862C221.539 18.134 221.539 17.07 221.511 15.67C221.483 14.27 221.469 13.346 221.469 12.898V10.84C221.469 10.588 221.497 10.434 221.553 10.378C221.637 10.294 221.805 10.252 222.057 10.252H238.731C239.095 10.252 239.277 10.406 239.277 10.714V10.966V30.664C239.277 30.832 239.249 30.93 239.193 30.958C239.137 30.986 238.955 31 238.647 31H232.095C231.843 31 231.717 30.818 231.717 30.454V15.796ZM262.424 10.84V30.706C262.424 30.902 262.312 31 262.088 31H255.536C255.2 31 255.032 30.818 255.032 30.454V23.608H253.73C252.358 23.608 251.518 24.364 251.21 25.876L250.832 27.43C250.608 28.354 250.244 29.124 249.74 29.74C249.264 30.328 248.69 30.748 248.018 31C247.346 31.28 246.702 31.462 246.086 31.546C245.498 31.658 244.812 31.714 244.028 31.714C243.412 31.714 243.062 31.56 242.978 31.252L241.802 27.262C241.774 27.206 241.76 27.122 241.76 27.01C241.76 26.618 241.97 26.38 242.39 26.296L242.894 26.212C243.79 26.044 244.364 25.512 244.616 24.616L244.868 23.818C245.288 22.586 246.086 21.788 247.262 21.424V21.34C244.742 20.584 243.482 18.932 243.482 16.384C243.482 14.592 244 13.178 245.036 12.142C246.296 10.882 248.494 10.252 251.63 10.252H261.836C262.088 10.252 262.242 10.294 262.298 10.378C262.382 10.434 262.424 10.588 262.424 10.84ZM255.032 19.114V14.746H253.226C251.434 14.746 250.538 15.432 250.538 16.804C250.538 18.344 251.392 19.114 253.1 19.114H255.032ZM285.851 10.84V25.876H287.825C288.105 25.876 288.245 26.044 288.245 26.38V36.292C288.245 36.544 288.203 36.698 288.119 36.754C288.063 36.838 287.909 36.88 287.657 36.88H282.533C282.309 36.88 282.155 36.838 282.071 36.754C281.987 36.67 281.945 36.516 281.945 36.292V31H270.815V36.292C270.815 36.544 270.773 36.698 270.689 36.754C270.633 36.838 270.479 36.88 270.227 36.88H265.103C264.879 36.88 264.725 36.838 264.641 36.754C264.557 36.67 264.515 36.516 264.515 36.292V26.464C264.515 26.072 264.655 25.876 264.935 25.876H266.741C267.833 23.916 268.519 21.956 268.799 19.996C268.995 18.652 269.093 16.272 269.093 12.856V10.84C269.093 10.588 269.121 10.434 269.177 10.378C269.261 10.294 269.429 10.252 269.681 10.252H285.263C285.487 10.252 285.641 10.294 285.725 10.378C285.809 10.462 285.851 10.616 285.851 10.84ZM278.879 25.876V15.376H275.309V16.762C275.309 20.346 274.721 23.384 273.545 25.876H278.879ZM88.6569 59.602V52.714C88.6569 52.462 88.7969 52.336 89.0769 52.336L96.0069 51.622C96.1469 51.622 96.2169 51.734 96.2169 51.958V72.622C96.2169 72.874 96.1189 73 95.9229 73H89.1189C88.8109 73 88.6569 72.818 88.6569 72.454V64.978H84.4569V72.664C84.4569 72.888 84.3589 73 84.1629 73H77.4009C77.0649 73 76.8969 72.818 76.8969 72.454V52.798C76.8969 52.518 77.0369 52.364 77.3169 52.336L84.2049 51.622C84.3729 51.622 84.4569 51.72 84.4569 51.916V59.602H88.6569ZM118.837 71.488C118.893 71.712 118.921 71.852 118.921 71.908C118.921 72.048 118.823 72.146 118.627 72.202L114.133 73.504C113.881 73.588 113.615 73.63 113.335 73.63C113.055 73.63 112.831 73.504 112.663 73.252C112.523 73 112.271 72.454 111.907 71.614C110.283 72.93 108.617 73.588 106.909 73.588C104.641 73.588 102.863 73 101.575 71.824C100.315 70.62 99.6848 68.982 99.6848 66.91C99.6848 62.01 103.409 59.56 110.857 59.56V58.342C110.857 57.894 110.703 57.572 110.395 57.376C110.087 57.18 109.429 57.082 108.421 57.082C107.189 57.082 105.509 57.516 103.381 58.384C103.297 58.44 103.185 58.468 103.045 58.468C102.877 58.468 102.751 58.356 102.667 58.132L101.155 53.974L101.071 53.638C101.071 53.498 101.253 53.33 101.617 53.134C103.521 52.07 106.111 51.538 109.387 51.538C115.043 51.538 117.871 53.946 117.871 58.762V66.406C117.871 68.17 118.193 69.864 118.837 71.488ZM110.857 67.54V63.97C107.749 63.97 106.195 64.852 106.195 66.616C106.195 67.316 106.391 67.876 106.783 68.296C107.175 68.688 107.651 68.884 108.211 68.884C109.079 68.884 109.961 68.436 110.857 67.54ZM149.07 54.856L147.474 58.552C147.362 58.804 147.236 58.93 147.096 58.93C146.984 58.93 146.816 58.86 146.592 58.72C144.94 57.684 143.512 57.166 142.308 57.166C141.356 57.166 140.558 57.614 139.914 58.51C139.27 59.378 138.948 60.792 138.948 62.752C138.948 64.628 139.27 65.986 139.914 66.826C140.558 67.666 141.37 68.086 142.35 68.086C143.302 68.086 144.506 67.666 145.962 66.826C146.242 66.658 146.466 66.574 146.634 66.574C146.83 66.574 147.012 66.742 147.18 67.078L148.776 70.186C148.888 70.41 148.944 70.578 148.944 70.69C148.944 71.502 148.02 72.216 146.172 72.832C144.324 73.42 142.784 73.714 141.552 73.714C138.276 73.714 135.77 72.762 134.034 70.858C132.326 68.926 131.472 66.294 131.472 62.962C131.472 59.462 132.41 56.69 134.286 54.646C136.162 52.574 138.808 51.538 142.224 51.538C144.66 51.538 146.858 52.252 148.818 53.68C149.098 53.876 149.238 54.072 149.238 54.268C149.238 54.324 149.182 54.52 149.07 54.856ZM169.916 63.592C169.916 63.984 169.692 64.18 169.244 64.18H157.358C157.47 65.608 157.82 66.644 158.408 67.288C158.996 67.932 159.822 68.254 160.886 68.254C162.034 68.254 162.972 68.128 163.7 67.876C164.456 67.624 165.324 67.232 166.304 66.7C166.5 66.588 166.654 66.532 166.766 66.532C166.962 66.532 167.144 66.686 167.312 66.994L169.202 70.522C169.286 70.662 169.328 70.774 169.328 70.858C169.328 70.998 169.188 71.152 168.908 71.32C166.556 72.916 163.812 73.714 160.676 73.714C157.232 73.714 154.614 72.762 152.822 70.858C151.03 68.926 150.134 66.238 150.134 62.794C150.134 59.49 151.058 56.788 152.906 54.688C154.782 52.588 157.302 51.538 160.466 51.538C166.766 51.538 169.916 55.556 169.916 63.592ZM162.818 59.686C162.734 58.37 162.482 57.46 162.062 56.956C161.67 56.424 161.054 56.158 160.214 56.158C159.346 56.158 158.702 56.41 158.282 56.914C157.89 57.418 157.582 58.342 157.358 59.686H162.818ZM190.84 40.366L192.52 44.65C192.548 44.706 192.562 44.804 192.562 44.944C192.562 45.28 192.366 45.532 191.974 45.7L185.002 48.388C182.566 49.312 180.802 50.32 179.71 51.412C178.562 52.56 177.988 53.932 177.988 55.528V55.738H178.24C179.584 53.582 181.712 52.504 184.624 52.504C187.172 52.504 189.202 53.274 190.714 54.814C192.506 56.634 193.402 59.238 193.402 62.626C193.402 66.126 192.436 68.87 190.504 70.858C188.628 72.762 186.094 73.714 182.902 73.714C179.85 73.714 177.456 72.818 175.72 71.026C175.048 70.326 174.502 69.528 174.082 68.632C173.662 67.708 173.368 66.616 173.2 65.356C173.06 64.068 172.962 62.99 172.906 62.122C172.878 61.254 172.864 59.994 172.864 58.342C172.864 57.39 172.878 56.578 172.906 55.906C172.962 55.206 173.046 54.408 173.158 53.512C173.298 52.616 173.494 51.832 173.746 51.16C173.998 50.488 174.348 49.76 174.796 48.976C175.272 48.192 175.832 47.492 176.476 46.876C177.12 46.26 177.918 45.644 178.87 45.028C179.85 44.384 180.942 43.81 182.146 43.306L189.79 40.072C189.958 40.016 190.098 39.988 190.21 39.988C190.518 39.988 190.728 40.114 190.84 40.366ZM183.112 68.59C184.988 68.59 185.926 66.77 185.926 63.13C185.926 61.366 185.73 60.05 185.338 59.182C184.89 58.146 184.148 57.628 183.112 57.628C181.236 57.628 180.298 59.364 180.298 62.836C180.298 64.712 180.466 66.07 180.802 66.91C181.278 68.03 182.048 68.59 183.112 68.59ZM215.112 52.84V72.706C215.112 72.902 215 73 214.776 73H208.224C207.888 73 207.72 72.818 207.72 72.454V65.608H206.418C205.046 65.608 204.206 66.364 203.898 67.876L203.52 69.43C203.296 70.354 202.932 71.124 202.428 71.74C201.952 72.328 201.378 72.748 200.706 73C200.034 73.28 199.39 73.462 198.774 73.546C198.186 73.658 197.5 73.714 196.716 73.714C196.1 73.714 195.75 73.56 195.666 73.252L194.49 69.262C194.462 69.206 194.448 69.122 194.448 69.01C194.448 68.618 194.658 68.38 195.078 68.296L195.582 68.212C196.478 68.044 197.052 67.512 197.304 66.616L197.556 65.818C197.976 64.586 198.774 63.788 199.95 63.424V63.34C197.43 62.584 196.17 60.932 196.17 58.384C196.17 56.592 196.688 55.178 197.724 54.142C198.984 52.882 201.182 52.252 204.318 52.252H214.524C214.776 52.252 214.93 52.294 214.986 52.378C215.07 52.434 215.112 52.588 215.112 52.84ZM207.72 61.114V56.746H205.914C204.122 56.746 203.226 57.432 203.226 58.804C203.226 60.344 204.08 61.114 205.788 61.114H207.72Z" fill="white"/>
<path d="M39.6197 96.856L38.0237 100.552C37.9117 100.804 37.7857 100.93 37.6457 100.93C37.5337 100.93 37.3657 100.86 37.1417 100.72C35.4897 99.684 34.0617 99.166 32.8577 99.166C31.9057 99.166 31.1077 99.614 30.4637 100.51C29.8197 101.378 29.4977 102.792 29.4977 104.752C29.4977 106.628 29.8197 107.986 30.4637 108.826C31.1077 109.666 31.9197 110.086 32.8997 110.086C33.8517 110.086 35.0557 109.666 36.5117 108.826C36.7917 108.658 37.0157 108.574 37.1837 108.574C37.3797 108.574 37.5617 108.742 37.7297 109.078L39.3257 112.186C39.4377 112.41 39.4937 112.578 39.4937 112.69C39.4937 113.502 38.5697 114.216 36.7217 114.832C34.8737 115.42 33.3337 115.714 32.1017 115.714C28.8257 115.714 26.3197 114.762 24.5837 112.858C22.8757 110.926 22.0217 108.294 22.0217 104.962C22.0217 101.462 22.9597 98.69 24.8357 96.646C26.7117 94.574 29.3577 93.538 32.7737 93.538C35.2097 93.538 37.4077 94.252 39.3677 95.68C39.6477 95.876 39.7877 96.072 39.7877 96.268C39.7877 96.324 39.7317 96.52 39.6197 96.856ZM75.5235 113.992C75.5795 114.272 75.6075 114.44 75.6075 114.496C75.6075 114.832 75.3275 115 74.7675 115H67.6695C67.3055 115 67.0815 114.972 66.9975 114.916C66.9135 114.832 66.8295 114.622 66.7455 114.286L65.1495 108.28H59.6475L57.9255 114.286C57.8135 114.622 57.7155 114.832 57.6315 114.916C57.5755 114.972 57.3795 115 57.0435 115H50.4915C49.9035 115 49.6095 114.86 49.6095 114.58C49.6095 114.468 49.6655 114.272 49.7775 113.992L58.5555 86.902C58.6395 86.566 58.7235 86.37 58.8075 86.314C58.9195 86.23 59.1435 86.188 59.4795 86.188H65.7375C66.0735 86.188 66.2835 86.23 66.3675 86.314C66.4515 86.37 66.5635 86.566 66.7035 86.902L75.5235 113.992ZM63.9735 102.61L63.1335 97.696C62.8255 95.96 62.5735 94.364 62.3775 92.908C62.0975 95.148 61.8595 96.744 61.6635 97.696L60.5715 102.61H63.9735ZM90.0339 113.488C90.0619 113.572 90.0759 113.67 90.0759 113.782C90.0759 114.258 89.3619 114.692 87.9339 115.084C86.5339 115.504 85.3999 115.714 84.5319 115.714C82.4599 115.714 80.8499 115.126 79.7019 113.95C78.6379 112.774 78.1059 111.01 78.1059 108.658L78.0639 86.44C78.0639 86.076 78.0919 85.838 78.1479 85.726C78.2039 85.614 78.3579 85.544 78.6099 85.516L84.9099 84.676C85.0499 84.648 85.2179 84.634 85.4139 84.634C85.6659 84.634 85.7919 84.886 85.7919 85.39V108.448C85.7919 109.064 85.9879 109.372 86.3799 109.372C86.7719 109.372 87.2339 109.302 87.7659 109.162C88.2979 108.994 88.5779 108.91 88.6059 108.91C88.8019 108.91 88.9139 108.994 88.9419 109.162L90.0339 113.488ZM112.044 104.584C112.044 108.28 111.316 111.08 109.86 112.984C108.404 114.86 106.136 115.798 103.056 115.798C102.132 115.798 101.054 115.518 99.8221 114.958V122.35C99.8221 122.63 99.7941 122.798 99.7381 122.854C99.6821 122.938 99.5561 122.994 99.3601 123.022L92.5981 123.82C92.4301 123.82 92.3321 123.778 92.3041 123.694C92.2761 123.61 92.2621 123.414 92.2621 123.106V100.342C92.2621 99.418 92.1221 98.396 91.8421 97.276C91.5621 96.156 91.4221 95.54 91.4221 95.428C91.4221 95.288 91.5341 95.19 91.7581 95.134L96.6301 93.664C96.9381 93.58 97.2321 93.538 97.5121 93.538C97.8201 93.538 98.1981 94.14 98.6461 95.344C100.074 94.14 101.698 93.538 103.518 93.538C106.346 93.538 108.474 94.532 109.902 96.52C111.33 98.48 112.044 101.168 112.044 104.584ZM104.736 104.71C104.736 100.79 103.938 98.83 102.342 98.83C101.53 98.83 100.69 99.166 99.8221 99.838V110.59C100.466 110.87 101.194 111.01 102.006 111.01C102.958 111.01 103.644 110.576 104.064 109.708C104.512 108.84 104.736 107.174 104.736 104.71ZM134.581 105.592C134.581 105.984 134.357 106.18 133.909 106.18H122.023C122.135 107.608 122.485 108.644 123.073 109.288C123.661 109.932 124.487 110.254 125.551 110.254C126.699 110.254 127.637 110.128 128.365 109.876C129.121 109.624 129.989 109.232 130.969 108.7C131.165 108.588 131.319 108.532 131.431 108.532C131.627 108.532 131.809 108.686 131.977 108.994L133.867 112.522C133.951 112.662 133.993 112.774 133.993 112.858C133.993 112.998 133.853 113.152 133.573 113.32C131.221 114.916 128.477 115.714 125.341 115.714C121.897 115.714 119.279 114.762 117.487 112.858C115.695 110.926 114.799 108.238 114.799 104.794C114.799 101.49 115.723 98.788 117.571 96.688C119.447 94.588 121.967 93.538 125.131 93.538C131.431 93.538 134.581 97.556 134.581 105.592ZM127.483 101.686C127.399 100.37 127.147 99.46 126.727 98.956C126.335 98.424 125.719 98.158 124.879 98.158C124.011 98.158 123.367 98.41 122.947 98.914C122.555 99.418 122.247 100.342 122.023 101.686H127.483ZM157.437 114.37C157.437 114.65 157.409 114.832 157.353 114.916C157.297 114.972 157.171 115 156.975 115H150.507C150.227 115 150.045 114.972 149.961 114.916C149.905 114.832 149.877 114.65 149.877 114.37V100.762C149.877 99.418 149.401 98.746 148.449 98.746C147.609 98.746 146.685 99.11 145.677 99.838V114.58C145.677 114.748 145.635 114.86 145.551 114.916C145.495 114.972 145.327 115 145.047 115H138.747C138.467 115 138.285 114.972 138.201 114.916C138.145 114.86 138.117 114.706 138.117 114.454V100.594C138.117 99.474 137.991 98.312 137.739 97.108C137.487 95.876 137.361 95.19 137.361 95.05C137.361 94.854 137.473 94.742 137.697 94.714L143.031 93.58C143.115 93.552 143.241 93.538 143.409 93.538C143.997 93.538 144.515 94.294 144.963 95.806C146.671 94.294 148.589 93.538 150.717 93.538C155.197 93.538 157.437 95.89 157.437 100.594V114.37ZM193.256 111.766C193.256 112.718 192.122 113.614 189.854 114.454C187.586 115.294 185.458 115.714 183.47 115.714C179.27 115.714 176.134 114.454 174.062 111.934C171.99 109.414 170.954 105.746 170.954 100.93V100.762C170.982 95.89 172.046 92.124 174.146 89.464C176.246 86.804 179.382 85.474 183.554 85.474C185.178 85.474 186.816 85.712 188.468 86.188C190.12 86.636 191.45 87.294 192.458 88.162C192.654 88.302 192.752 88.498 192.752 88.75C192.752 88.778 192.724 88.876 192.668 89.044L190.316 93.958C190.232 94.098 190.12 94.168 189.98 94.168C189.868 94.168 189.672 94.098 189.392 93.958C189.336 93.93 189.154 93.846 188.846 93.706C188.566 93.566 188.37 93.468 188.258 93.412C188.174 93.356 187.978 93.258 187.67 93.118C187.39 92.978 187.166 92.88 186.998 92.824C186.83 92.768 186.592 92.698 186.284 92.614C186.004 92.53 185.738 92.474 185.486 92.446C185.262 92.39 184.996 92.348 184.688 92.32C184.38 92.264 184.072 92.236 183.764 92.236C182.336 92.236 181.202 92.838 180.362 94.042C179.522 95.218 179.102 97.332 179.102 100.384C179.102 106.348 180.684 109.33 183.848 109.33C184.632 109.33 185.36 109.218 186.032 108.994V105.046L182.672 105.004C182.308 105.004 182.084 104.976 182 104.92C181.916 104.836 181.874 104.612 181.874 104.248V99.586C181.874 99.194 181.916 98.956 182 98.872C182.112 98.76 182.364 98.704 182.756 98.704H192.458C192.794 98.704 193.004 98.76 193.088 98.872C193.2 98.956 193.256 99.166 193.256 99.502V111.766ZM217.123 104.668C217.123 107.972 216.213 110.646 214.393 112.69C212.573 114.706 210.067 115.714 206.875 115.714C203.571 115.714 201.023 114.72 199.231 112.732C197.439 110.716 196.543 108 196.543 104.584C196.543 101.252 197.453 98.578 199.273 96.562C201.121 94.546 203.669 93.538 206.917 93.538C210.165 93.538 212.671 94.546 214.435 96.562C216.227 98.578 217.123 101.28 217.123 104.668ZM208.933 109.288C209.409 108.392 209.647 106.838 209.647 104.626C209.647 102.414 209.409 100.874 208.933 100.006C208.485 99.11 207.785 98.662 206.833 98.662C205.881 98.662 205.167 99.11 204.691 100.006C204.243 100.874 204.019 102.428 204.019 104.668C204.019 106.88 204.243 108.42 204.691 109.288C205.167 110.156 205.881 110.59 206.833 110.59C207.785 110.59 208.485 110.156 208.933 109.288ZM232.481 113.488C232.509 113.572 232.523 113.67 232.523 113.782C232.523 114.258 231.809 114.692 230.381 115.084C228.981 115.504 227.847 115.714 226.979 115.714C224.907 115.714 223.297 115.126 222.149 113.95C221.085 112.774 220.553 111.01 220.553 108.658L220.511 86.44C220.511 86.076 220.539 85.838 220.595 85.726C220.651 85.614 220.805 85.544 221.057 85.516L227.357 84.676C227.497 84.648 227.665 84.634 227.861 84.634C228.113 84.634 228.239 84.886 228.239 85.39V108.448C228.239 109.064 228.435 109.372 228.827 109.372C229.219 109.372 229.681 109.302 230.213 109.162C230.745 108.994 231.025 108.91 231.053 108.91C231.249 108.91 231.361 108.994 231.389 109.162L232.481 113.488ZM254.071 113.026C254.155 113.278 254.197 113.46 254.197 113.572C254.197 113.768 254.057 113.908 253.777 113.992L249.199 115.42C248.919 115.504 248.611 115.546 248.275 115.546C247.827 115.546 247.435 114.944 247.099 113.74C245.307 115.056 243.487 115.714 241.639 115.714C239.035 115.714 237.075 114.734 235.759 112.774C234.443 110.814 233.785 108.224 233.785 105.004C233.785 102.764 233.953 100.986 234.289 99.67C234.625 98.326 235.283 97.122 236.263 96.058C237.803 94.35 239.931 93.496 242.647 93.496C243.543 93.496 244.579 93.734 245.755 94.21V86.314C245.755 85.95 245.881 85.754 246.133 85.726L252.475 84.676C252.559 84.648 252.685 84.634 252.853 84.634C253.161 84.634 253.315 84.858 253.315 85.306V109.498C253.315 109.918 253.343 110.31 253.399 110.674C253.455 111.038 253.511 111.318 253.567 111.514C253.623 111.682 253.707 111.934 253.819 112.27C253.931 112.606 254.015 112.858 254.071 113.026ZM245.755 109.582V98.788C244.971 98.508 244.215 98.368 243.487 98.368C242.591 98.368 241.919 98.816 241.471 99.712C241.023 100.58 240.799 102.162 240.799 104.458C240.799 108.518 241.597 110.548 243.193 110.548C244.117 110.548 244.971 110.226 245.755 109.582ZM267.839 86.608L266.789 103.114C266.761 103.478 266.705 103.716 266.621 103.828C266.537 103.912 266.313 103.954 265.949 103.954H260.783C260.419 103.954 260.195 103.912 260.111 103.828C260.027 103.716 259.971 103.478 259.943 103.114L258.893 86.314C258.893 86.062 258.935 85.908 259.019 85.852C259.131 85.768 259.369 85.726 259.733 85.726H266.957C267.321 85.726 267.559 85.768 267.671 85.852C267.783 85.936 267.839 86.104 267.839 86.356V86.608ZM266.831 108.196C267.783 109.148 268.259 110.282 268.259 111.598C268.259 112.914 267.783 114.048 266.831 115C265.879 115.952 264.745 116.428 263.429 116.428C262.113 116.428 260.979 115.952 260.027 115C259.075 114.048 258.599 112.914 258.599 111.598C258.599 110.282 259.075 109.148 260.027 108.196C260.979 107.244 262.113 106.768 263.429 106.768C264.745 106.768 265.879 107.244 266.831 108.196Z" fill="url(#paint0_linear)"/>
</g>
<defs>
<filter id="filter0_d" x="0.881165" y="0.802002" width="287.363" height="127.018" filterUnits="userSpaceOnUse" color-interpolation-filters="sRGB">
<feFlood flood-opacity="0" result="BackgroundImageFix"/>
<feColorMatrix in="SourceAlpha" type="matrix" values="0 0 0 0 0 0 0 0 0 0 0 0 0 0 0 0 0 0 127 0"/>
<feOffset dx="-2" dy="2"/>
<feGaussianBlur stdDeviation="1"/>
<feColorMatrix type="matrix" values="0 0 0 0 0.407789 0 0 0 0 0.153002 0 0 0 0 0.000130266 0 0 0 0.75 0"/>
<feBlend mode="normal" in2="BackgroundImageFix" result="effect1_dropShadow"/>
<feBlend mode="normal" in="SourceGraphic" in2="effect1_dropShadow" result="shape"/>
</filter>
<linearGradient id="paint0_linear" x1="271.84" y1="35.54" x2="141.435" y2="235.692" gradientUnits="userSpaceOnUse">
<stop offset="0.744792" stop-color="#DFBC84"/>
<stop offset="1" stop-color="#E0BFA3"/>
</linearGradient>
</defs>
</svg>
